<svg width="48" height="48" viewBox="0 0 48 48" fill="none" xmlns="http://www.w3.org/2000/svg">
<path d="M37.7977 25.1935C37.7764 21.2873 39.5433 18.339 43.1196 16.1677C41.1186 13.3046 38.0957 11.7293 34.1044 11.4207C30.3258 11.1226 26.1961 13.6239 24.6847 13.6239C23.0881 13.6239 19.4267 11.5271 16.5529 11.5271C10.6137 11.6229 4.302 16.2635 4.302 25.7044C4.302 28.493 4.8129 31.3739 5.83469 34.347C7.19709 38.2533 12.1145 47.8325 17.2447 47.6729C19.927 47.609 21.8215 45.7677 25.3127 45.7677C28.6974 45.7677 30.4536 47.6729 33.4444 47.6729C38.6173 47.5984 43.0664 38.8919 44.3649 34.975C37.4252 31.7074 37.7977 25.3958 37.7977 25.1935ZM31.7734 7.71667C34.6791 4.26813 34.413 1.12826 34.3279 3.05176e-05C31.7627 0.149041 28.7932 1.74559 27.1008 3.71466C25.2382 5.8221 24.1419 8.42979 24.376 11.3674C27.154 11.5803 29.6872 10.1541 31.7734 7.71667Z" fill="black"/>
</svg>
