<svg width="48" height="48" viewBox="0 0 48 48" fill="none" xmlns="http://www.w3.org/2000/svg">
<path fill-rule="evenodd" clip-rule="evenodd" d="M23.9999 0.834813C36.7936 0.834813 47.165 11.2062 47.165 23.9999C47.165 36.7936 36.7936 47.1649 23.9999 47.1649C11.2063 47.1649 0.8349 36.7936 0.8349 23.9999C0.8349 11.2062 11.2063 0.834813 23.9999 0.834813Z" fill="url(#paint0_linear_7_14)"/>
<path d="M27.0098 46.9705V29.0774H32.0542L32.7228 22.7798H27.0098L27.0183 19.6276C27.0183 17.9851 27.1743 17.1054 29.5336 17.1054H32.6874V10.8068H27.6419C21.5814 10.8068 19.4485 13.8616 19.4485 18.9997V22.7803H15.6706V29.0784H19.4485V46.7168C20.9204 47.01 22.4419 47.1649 23.9999 47.1649C25.0063 47.165 26.0117 47.1 27.0098 46.9705Z" fill="white"/>
<defs>
<linearGradient id="paint0_linear_7_14" x1="23.9999" y1="0.412723" x2="23.9999" y2="49.1405" gradientUnits="userSpaceOnUse">
<stop stop-color="#00B2FF"/>
<stop offset="1" stop-color="#006AFF"/>
</linearGradient>
</defs>
</svg>
