<svg width="48" height="48" viewBox="0 0 48 48" fill="none" xmlns="http://www.w3.org/2000/svg">
<path d="M47.4783 24.5739C47.4783 22.9565 47.3217 21.2869 47.0609 19.7217H24.4696V28.9565H37.4087C36.887 31.9304 35.1652 34.5391 32.6087 36.2087L40.3304 42.2087C44.8696 37.9826 47.4783 31.8261 47.4783 24.5739Z" fill="#4280EF"/>
<path d="M24.4696 47.9478C30.9391 47.9478 36.3652 45.8087 40.3305 42.1565L32.6087 36.2087C30.4696 37.6695 27.7044 38.5043 24.4696 38.5043C18.2087 38.5043 12.9391 34.2782 11.0087 28.6435L3.07828 34.7478C7.14784 42.8348 15.3913 47.9478 24.4696 47.9478Z" fill="#34A353"/>
<path d="M11.0087 28.5913C10.0174 25.6174 10.0174 22.3826 11.0087 19.4087L3.07827 13.2522C-0.313036 20.0348 -0.313036 28.0174 3.07827 34.7478L11.0087 28.5913Z" fill="#F6B704"/>
<path d="M24.4696 9.54782C27.8609 9.49564 31.2 10.8 33.6522 13.1478L40.487 6.26086C36.1565 2.19129 30.4174 -9.05561e-06 24.4696 0.0521649C15.3913 0.0521649 7.14784 5.16521 3.07828 13.2522L11.0087 19.4087C12.9391 13.7217 18.2087 9.54782 24.4696 9.54782Z" fill="#E54335"/>
</svg>
