<svg viewBox="0 0 32 32" fill="none" xmlns="http://www.w3.org/2000/svg">
<path d="M7.48529 24.4853C6.70424 23.7042 6.70424 22.4379 7.48529 21.6568L21.6274 7.51471C22.4085 6.73366 23.6748 6.73366 24.4559 7.51471C25.2369 8.29576 25.2369 9.56209 24.4559 10.3431L10.3137 24.4853C9.53267 25.2663 8.26634 25.2663 7.48529 24.4853Z" fill="#11111B"/>
<path d="M24.4559 24.4853C23.6748 25.2663 22.4085 25.2663 21.6274 24.4853L7.48529 10.3431C6.70424 9.56209 6.70424 8.29576 7.48529 7.51471C8.26634 6.73366 9.53267 6.73366 10.3137 7.51471L24.4559 21.6568C25.2369 22.4379 25.2369 23.7042 24.4559 24.4853Z" fill="#11111B"/>
</svg>
