<svg width="32" height="32" viewBox="0 0 32 32" fill="none" xmlns="http://www.w3.org/2000/svg">
<path fill-rule="evenodd" clip-rule="evenodd" d="M7.11544 19C7.62735 19 8 19.4881 8 20C8 20.5119 7.62735 21 7.11544 21H5C4.44772 21 4 20.5523 4 20C4 19.4477 4.44772 19 5 19H7.11544ZM16.8846 19C16.3727 19 16 19.4881 16 20C16 20.5119 16.3727 21 16.8846 21H27C27.5523 21 28 20.5523 28 20C28 19.4477 27.5523 19 27 19H16.8846Z" fill="#F09139"/>
<path d="M9 20C9 18.3431 10.3431 17 12 17C13.6569 17 15 18.3431 15 20C15 21.6569 13.6569 23 12 23C10.3431 23 9 21.6569 9 20Z" fill="#F09139"/>
<path fill-rule="evenodd" clip-rule="evenodd" d="M15.1154 11C15.6273 11 16 11.4881 16 12C16 12.5119 15.6273 13 15.1154 13H5C4.44772 13 4 12.5523 4 12C4 11.4477 4.44772 11 5 11H15.1154ZM24.8846 11C24.3727 11 24 11.4881 24 12C24 12.5119 24.3727 13 24.8846 13H27C27.5523 13 28 12.5523 28 12C28 11.4477 27.5523 11 27 11H24.8846Z" fill="#F09139"/>
<path d="M17 12C17 10.3431 18.3431 9 20 9C21.6569 9 23 10.3431 23 12C23 13.6569 21.6569 15 20 15C18.3431 15 17 13.6569 17 12Z" fill="#F09139"/>
</svg>
